# Blender v2.79 (sub 0) OBJ File: 'Helicopter.blend'
# www.blender.org
mtllib Helicopter_RotorBlade.mtl
o Helicopter_RotorBlade_Cube.001
v -0.119336 0.000000 0.119336
v -0.175575 0.634082 0.001617
v -0.119336 0.000000 -0.119336
v -0.175575 0.521887 0.001617
v 0.119336 0.000000 0.119336
v -0.175575 0.634082 3.945736
v 0.119336 0.000000 -0.119336
v -0.175575 0.521887 3.945736
v -0.135105 0.420718 0.135105
v -0.257251 0.482591 0.257252
v -0.257251 0.482591 -0.257252
v -0.135105 0.420718 -0.135105
v 0.257252 0.482591 0.257252
v 0.135105 0.420718 0.135105
v 0.257252 0.482591 -0.257252
v 0.135105 0.420718 -0.135105
v 0.175575 0.521887 3.945736
v 0.175575 0.634082 3.945736
v 0.175575 0.521887 0.001617
v 0.175575 0.634082 0.001617
v 0.012483 0.634082 0.185971
v 0.012483 0.521887 0.185971
v 3.956603 0.634082 0.185971
v 3.956603 0.521887 0.185971
v 3.956603 0.521887 -0.165178
v 3.956603 0.634082 -0.165178
v 0.012483 0.521887 -0.165178
v 0.012483 0.634082 -0.165178
v -3.942428 0.634082 0.185971
v -3.942428 0.521887 0.185971
v 0.001692 0.634082 0.185971
v 0.001692 0.521887 0.185971
v 0.001692 0.521887 -0.165178
v 0.001692 0.634082 -0.165178
v -3.942428 0.521887 -0.165178
v -3.942428 0.634082 -0.165178
v -0.175575 0.634082 -3.954796
v -0.175575 0.521887 -3.954796
v -0.175575 0.634082 -0.010677
v -0.175575 0.521887 -0.010677
v 0.175575 0.521887 -0.010677
v 0.175575 0.634082 -0.010677
v 0.175575 0.521887 -3.954796
v 0.175575 0.634082 -3.954796
v -0.279685 0.694721 0.279685
v -0.236235 0.744467 0.192817
v -0.236235 0.744467 -0.192817
v -0.279685 0.694721 -0.279685
v 0.236235 0.744467 -0.192817
v 0.279685 0.694721 -0.279685
v 0.236235 0.744467 0.192817
v 0.279685 0.694721 0.279685
vt 0.888417 0.502928
vt 0.888417 0.389688
vt 0.935210 0.384750
vt 0.935210 0.507865
vt 0.888417 0.375411
vt 0.888417 0.262171
vt 0.935210 0.257234
vt 0.935210 0.380349
vt 0.796749 0.870282
vt 0.772062 0.870282
vt 0.772062 0.002201
vt 0.796749 0.002201
vt 0.891887 0.604921
vt 0.888417 0.512267
vt 0.947889 0.512267
vt 0.944418 0.604921
vt 0.293094 0.927215
vt 0.293094 0.874684
vt 0.345625 0.874684
vt 0.345625 0.927215
vt 0.935210 0.134655
vt 0.935210 0.247895
vt 0.888417 0.252832
vt 0.888417 0.129717
vt 0.944418 0.706379
vt 0.947889 0.799034
vt 0.888417 0.799034
vt 0.891887 0.706379
vt 0.891887 0.896090
vt 0.888417 0.803436
vt 0.947889 0.803436
vt 0.944418 0.896090
vt 0.279129 0.978680
vt 0.175141 0.978680
vt 0.175141 0.893804
vt 0.279129 0.893804
vt 0.161176 0.987924
vt 0.047936 0.987924
vt 0.074820 0.961040
vt 0.134292 0.961040
vt 0.047936 0.874684
vt 0.074820 0.901568
vt 0.161176 0.874684
vt 0.134292 0.901568
vt 0.891887 0.701978
vt 0.888417 0.609323
vt 0.947889 0.609323
vt 0.944418 0.701978
vt 0.464418 0.951971
vt 0.439731 0.951971
vt 0.439731 0.874684
vt 0.464418 0.874684
vt 0.709483 0.870282
vt 0.684796 0.870282
vt 0.684796 0.002201
vt 0.709483 0.002201
vt 0.350027 0.874684
vt 0.374713 0.874684
vt 0.374713 0.951971
vt 0.350027 0.951971
vt 0.574019 0.002201
vt 0.651305 0.002201
vt 0.651305 0.870282
vt 0.574019 0.870282
vt 0.410643 0.002201
vt 0.487929 0.002201
vt 0.487929 0.870282
vt 0.410643 0.870282
vt 0.854926 0.870283
vt 0.830240 0.870283
vt 0.830240 0.002201
vt 0.854926 0.002201
vt 0.026888 0.951971
vt 0.002201 0.951971
vt 0.002201 0.874684
vt 0.026888 0.874684
vt 0.738572 0.870282
vt 0.713885 0.870282
vt 0.713885 0.002201
vt 0.738572 0.002201
vt 0.522595 0.951971
vt 0.497908 0.951971
vt 0.497908 0.874684
vt 0.522595 0.874684
vt 0.161176 0.870283
vt 0.083889 0.870283
vt 0.083889 0.002201
vt 0.161176 0.002201
vt 0.324552 0.870283
vt 0.247266 0.870283
vt 0.247266 0.002201
vt 0.324552 0.002201
vt 0.825838 0.870283
vt 0.801151 0.870283
vt 0.801151 0.002201
vt 0.825838 0.002201
vt 0.435329 0.951971
vt 0.410643 0.951971
vt 0.410643 0.874684
vt 0.435329 0.874684
vt 0.767660 0.870282
vt 0.742974 0.870282
vt 0.742974 0.002201
vt 0.767660 0.002201
vt 0.493506 0.951971
vt 0.468820 0.951971
vt 0.468820 0.874684
vt 0.493506 0.874684
vt 0.242864 0.870282
vt 0.165578 0.870282
vt 0.165578 0.002201
vt 0.242864 0.002201
vt 0.406241 0.870282
vt 0.328954 0.870282
vt 0.328954 0.002201
vt 0.406240 0.002201
vt 0.859328 0.002201
vt 0.884015 0.002201
vt 0.884015 0.870282
vt 0.859328 0.870282
vt 0.526997 0.874684
vt 0.551684 0.874684
vt 0.551684 0.951971
vt 0.526997 0.951971
vt 0.680394 0.870282
vt 0.655707 0.870282
vt 0.655707 0.002201
vt 0.680394 0.002201
vt 0.379115 0.874684
vt 0.403802 0.874684
vt 0.403802 0.951971
vt 0.379115 0.951971
vt 0.002201 0.002201
vt 0.079487 0.002201
vt 0.079487 0.870282
vt 0.002201 0.870282
vt 0.569617 0.870282
vt 0.492331 0.870282
vt 0.492331 0.002201
vt 0.569617 0.002201
vt 0.939612 0.106196
vt 0.939612 0.021320
vt 0.950330 0.002201
vt 0.950330 0.125316
vt 0.288692 0.997799
vt 0.165578 0.997799
vt 0.939612 0.233713
vt 0.939612 0.148837
vt 0.950330 0.129717
vt 0.950330 0.252832
vt 0.165578 0.874684
vt 0.288692 0.874684
vt 0.888417 0.120378
vt 0.888417 0.007138
vt 0.935210 0.002201
vt 0.935210 0.125316
vn 0.0000 -0.1052 -0.9945
vn 0.9945 -0.1052 0.0000
vn -1.0000 0.0000 0.0000
vn -0.9993 -0.0375 0.0000
vn 0.0000 -1.0000 0.0000
vn 0.0000 -0.1052 0.9945
vn 0.9993 -0.0375 0.0000
vn 0.0000 -0.0375 -0.9993
vn 0.0000 1.0000 0.0000
vn -0.4519 -0.8921 0.0000
vn 0.0000 -0.8921 -0.4519
vn 0.4519 -0.8921 0.0000
vn 0.0000 -0.8921 0.4519
vn 0.0000 -0.0375 0.9993
vn 0.0000 0.0000 -1.0000
vn 1.0000 0.0000 0.0000
vn 0.0000 0.0000 1.0000
vn -0.7532 0.6578 0.0000
vn 0.0000 0.8678 -0.4969
vn 0.7532 0.6578 0.0000
vn 0.0000 0.8678 0.4969
vn -0.9945 -0.1052 0.0000
usemtl Helicopter_RotorBlade
s off
f 15/1/1 11/2/1 48/3/1 50/4/1
f 13/5/2 15/6/2 50/7/2 52/8/2
f 8/9/3 6/10/3 2/11/3 4/12/3
f 1/13/4 9/14/4 12/15/4 3/16/4
f 3/17/5 7/18/5 5/19/5 1/20/5
f 10/21/6 13/22/6 52/23/6 45/24/6
f 7/25/7 16/26/7 14/27/7 5/28/7
f 3/29/8 12/30/8 16/31/8 7/32/8
f 49/33/9 47/34/9 46/35/9 51/36/9
f 10/37/10 11/38/10 12/39/10 9/40/10
f 11/38/11 15/41/11 16/42/11 12/39/11
f 15/41/12 13/43/12 14/44/12 16/42/12
f 13/43/13 10/37/13 9/40/13 14/44/13
f 5/45/14 14/46/14 9/47/14 1/48/14
f 4/49/15 2/50/15 20/51/15 19/52/15
f 19/53/16 20/54/16 18/55/16 17/56/16
f 17/57/17 18/58/17 6/59/17 8/60/17
f 4/61/5 19/62/5 17/63/5 8/64/5
f 20/65/9 2/66/9 6/67/9 18/68/9
f 24/69/17 23/70/17 21/71/17 22/72/17
f 22/73/3 21/74/3 28/75/3 27/76/3
f 27/77/15 28/78/15 26/79/15 25/80/15
f 25/81/16 26/82/16 23/83/16 24/84/16
f 22/85/5 27/86/5 25/87/5 24/88/5
f 28/89/9 21/90/9 23/91/9 26/92/9
f 32/93/17 31/94/17 29/95/17 30/96/17
f 30/97/3 29/98/3 36/99/3 35/100/3
f 35/101/15 36/102/15 34/103/15 33/104/15
f 33/105/16 34/106/16 31/107/16 32/108/16
f 30/109/5 35/110/5 33/111/5 32/112/5
f 36/113/9 29/114/9 31/115/9 34/116/9
f 40/117/3 39/118/3 37/119/3 38/120/3
f 38/121/15 37/122/15 44/123/15 43/124/15
f 43/125/16 44/126/16 42/127/16 41/128/16
f 41/129/17 42/130/17 39/131/17 40/132/17
f 38/133/5 43/134/5 41/135/5 40/136/5
f 44/137/9 37/138/9 39/139/9 42/140/9
f 46/141/18 47/142/18 48/143/18 45/144/18
f 47/34/19 49/33/19 50/145/19 48/146/19
f 49/147/20 51/148/20 52/149/20 50/150/20
f 51/36/21 46/35/21 45/151/21 52/152/21
f 11/153/22 10/154/22 45/155/22 48/156/22
